<?xml version="1.0" encoding="iso-8859-1"?>
<!-- Generator: Adobe Illustrator 19.0.0, SVG Export Plug-In . SVG Version: 6.00 Build 0)  -->
<svg xmlns="http://www.w3.org/2000/svg" xmlns:xlink="http://www.w3.org/1999/xlink" version="1.1" id="Layer_1" x="0px" y="0px" viewBox="0 0 512 512" style="enable-background:new 0 0 512 512;" xml:space="preserve" width="512" height="512">
<g>
	<g>
		<path d="M252.315,308.74c83.768,0,151.919-68.15,151.919-151.918S336.083,4.904,252.315,4.904S100.397,73.054,100.397,156.823    S168.547,308.74,252.315,308.74z M125.677,209.627h58.773c3.319,19.407,8.485,37.24,15.298,52.427    c4.872,10.86,10.415,19.959,16.469,27.156C175.249,278.027,141.859,248.289,125.677,209.627z M252.315,19.616    c14.044,0,28.311,13.848,39.143,37.996c6.034,13.452,10.686,29.208,13.796,46.406H199.376c3.11-17.198,7.762-32.953,13.796-46.406    C224.004,33.465,238.271,19.616,252.315,19.616z M307.494,118.73c1.525,12.229,2.314,25.018,2.314,38.092    s-0.788,25.863-2.314,38.092H197.137c-1.526-12.23-2.314-25.018-2.314-38.092s0.788-25.863,2.314-38.092H307.494z     M389.521,156.823c0,13.212-1.878,25.993-5.379,38.092h-61.836c1.461-12.291,2.214-25.07,2.214-38.092    c0-13.023-0.753-25.802-2.214-38.092h61.836C387.644,130.829,389.521,143.611,389.521,156.823z M252.315,294.028    c-14.044,0-28.311-13.849-39.143-37.996c-6.034-13.452-10.686-29.207-13.796-46.405h105.878    c-3.11,17.197-7.762,32.953-13.796,46.405C280.626,280.179,266.359,294.028,252.315,294.028z M182.324,194.915h-61.836    c-3.502-12.099-5.379-24.88-5.379-38.092s1.878-25.993,5.379-38.092h61.836c-1.461,12.291-2.214,25.07-2.214,38.092    C180.11,169.845,180.864,182.624,182.324,194.915z M288.413,289.21c6.054-7.197,11.597-16.296,16.469-27.156    c6.813-15.187,11.979-33.02,15.298-52.427h58.773C362.772,248.289,329.381,278.027,288.413,289.21z M378.953,104.018H320.18    c-3.319-19.407-8.485-37.24-15.298-52.428c-4.871-10.86-10.415-19.959-16.468-27.155    C329.382,35.617,362.772,65.356,378.953,104.018z M216.217,24.435c-6.054,7.197-11.597,16.296-16.468,27.156    c-6.813,15.187-11.979,33.02-15.298,52.428h-58.773C141.858,65.356,175.248,35.617,216.217,24.435z"/>
		<path d="M61.119,271.087h-45.51C7.002,271.087,0,278.088,0,286.695v183.652c0,8.607,7.002,15.609,15.609,15.609h45.51    c8.607,0,15.609-7.002,15.609-15.609V286.695C76.728,278.088,69.726,271.087,61.119,271.087z M62.016,470.348    c0,0.494-0.402,0.897-0.897,0.897h-45.51c-0.494,0-0.897-0.402-0.897-0.897V286.695c0-0.494,0.402-0.897,0.897-0.897h45.51    c0.494,0,0.897,0.402,0.897,0.897V470.348z"/>
		<path d="M506.551,334.711c-9.739-14.315-29.354-18.1-43.712-8.455L362.409,393.47l-21.798-1.223l-0.572-5.757    c-2.121-21.331-18.426-38.327-39.652-41.33c-0.063-0.01-0.126-0.017-0.189-0.025l-81.732-9.41    c-17.982-2.556-35.049-8.503-50.729-17.675c-20.738-12.132-44.376-19.321-68.359-20.789c-4.038-0.217-7.543,2.838-7.792,6.894    c-0.249,4.055,2.838,7.543,6.893,7.792c21.692,1.328,43.072,7.829,61.829,18.802c17.366,10.159,36.271,16.738,56.19,19.556    c0.063,0.01,0.126,0.017,0.189,0.025l81.728,9.409c14.449,2.085,25.539,13.671,26.984,28.207l0.511,5.137l-115.873,18.754    l-50.298-12.345c-3.948-0.97-7.929,1.445-8.897,5.391c-0.968,3.946,1.445,7.93,5.391,8.898l51.75,12.701    c0.575,0.141,1.164,0.212,1.753,0.212c0.393,0,0.786-0.032,1.175-0.095l123.388-19.97l29.745,1.669    c1.596,0.095,3.176-0.343,4.503-1.231l102.488-68.59c7.677-5.16,18.152-3.132,23.354,4.51c4.755,6.988,3.575,16.49-2.78,22.134    l-101.323,91.128c-8.435,6.841-18.553,11.363-29.277,13.084l-156.921,22.62c-0.033,0.004-0.066,0.01-0.098,0.014l-0.11,0.017    c-4.742,0.75-9.683,0.435-14.689-0.938l-82.56-31.264c-3.8-1.439-8.046,0.474-9.485,4.274c-1.439,3.8,0.475,8.046,4.274,9.485    l82.873,31.383c0.2,0.076,0.402,0.143,0.608,0.2c4.651,1.313,9.298,1.971,13.887,1.971c2.483,0,4.949-0.194,7.389-0.579    c0.002-0.001,0.032-0.005,0.059-0.01l156.931-22.621c0.037-0.005,0.074-0.011,0.111-0.016c13.358-2.133,25.959-7.78,36.442-16.328    c0.092-0.076,0.181-0.152,0.27-0.232l101.424-91.219C513.244,365.583,515.453,347.794,506.551,334.711z"/>
	</g>
</g>















</svg>
